<svg width="27" height="28" viewBox="0 0 27 28" fill="none" xmlns="http://www.w3.org/2000/svg">
<g id="Group">
<g id="Group_2">
<g id="Group_3">
<path id="Vector" d="M13.6833 26.3497C20.577 26.3497 26.1655 20.6771 26.1655 13.6795C26.1655 6.68193 20.577 1.00928 13.6833 1.00928C6.78963 1.00928 1.20117 6.68193 1.20117 13.6795C1.20117 20.6771 6.78963 26.3497 13.6833 26.3497Z" fill="#C6BAD3"/>
<path id="Vector_2" d="M25.1666 15.5597C26.1788 9.12157 21.8577 3.06948 15.5151 2.04199C9.17257 1.0145 3.2103 5.40069 2.19806 11.8388C1.18582 18.277 5.50691 24.329 11.8495 25.3565C18.1921 26.384 24.1543 21.9978 25.1666 15.5597Z" fill="white"/>
</g>
<path id="Vector_3" d="M13.684 24.774C19.7205 24.774 24.6141 19.8067 24.6141 13.6792C24.6141 7.55177 19.7205 2.58447 13.684 2.58447C7.64747 2.58447 2.75391 7.55177 2.75391 13.6792C2.75391 19.8067 7.64747 24.774 13.684 24.774Z" fill="#606060"/>
<g id="Group_4">
<g id="Clip path group">
<mask id="mask0_216_887" style="mask-type:luminance" maskUnits="userSpaceOnUse" x="2" y="2" width="23" height="23">
<g id="SVGID_4_">
<path id="Vector_4" d="M13.684 24.774C19.7205 24.774 24.6141 19.8067 24.6141 13.6792C24.6141 7.55177 19.7205 2.58447 13.684 2.58447C7.64747 2.58447 2.75391 7.55177 2.75391 13.6792C2.75391 19.8067 7.64747 24.774 13.684 24.774Z" fill="white"/>
</g>
</mask>
<g mask="url(#mask0_216_887)">
<g id="Group_5">
<path id="Vector_5" d="M31.9152 2.58447H-4.78809V24.774H31.9152V2.58447Z" fill="#34A53C"/>
<g id="Group_6">
<path id="Vector_6" d="M13.5084 6.68945L3.93359 13.6792L13.5084 20.6911L23.0613 13.6792L13.5084 6.68945Z" fill="#FFD41F"/>
<g id="Group_7">
<path id="Vector_7" d="M17.7386 14.4076C18.1211 12.0001 16.5084 9.73367 14.1366 9.34543C11.7648 8.95718 9.53206 10.5941 9.14958 13.0016C8.7671 15.4092 10.3797 17.6756 12.7515 18.0638C15.1233 18.4521 17.3561 16.8151 17.7386 14.4076Z" fill="#3358AA"/>
<path id="Vector_8" d="M17.7277 12.9249C15.957 11.5048 12.3501 10.4841 10.0329 10.9723C9.70501 11.3939 9.46454 11.8598 9.31152 12.3702C9.3771 12.3258 9.42083 12.2814 9.48641 12.2371C11.1915 11.2163 16.0007 12.3258 17.5091 14.0788C17.6184 14.1897 17.684 14.3007 17.7496 14.4116C17.7933 14.1676 17.8151 13.9457 17.8151 13.7016C17.8151 13.4353 17.7714 13.1912 17.7277 12.9249Z" fill="white"/>
</g>
</g>
</g>
</g>
</g>
</g>
</g>
<g id="Group_8">
<g id="Group_9">
<g id="Group_10" opacity="0.25">
<g id="Group_11" opacity="0.5">
<path id="Vector_9" d="M13.685 2.60693C7.65156 2.60693 2.75488 7.57739 2.75488 13.7017C2.75488 19.826 7.65156 24.7965 13.685 24.7965C19.7184 24.7965 24.6151 19.826 24.6151 13.7017C24.5932 7.57739 19.7184 2.60693 13.685 2.60693ZM13.685 24.0642C8.04505 24.0642 3.47627 19.4266 3.47627 13.7017C3.47627 7.9768 8.04505 3.33919 13.685 3.33919C19.3249 3.33919 23.8937 7.9768 23.8937 13.7017C23.8937 19.4266 19.3249 24.0642 13.685 24.0642Z" fill="#4F3A77"/>
</g>
</g>
</g>
<g id="Group_12" opacity="0.25">
<path id="Vector_10" opacity="0.5" d="M13.9035 24.7742C17.5542 24.7076 20.7457 22.7993 22.6913 19.9591C19.8058 21.4458 15.8928 21.0907 13.6193 15.6099C11.7831 11.1942 8.37288 9.92938 5.50919 10.4619C3.9134 10.7504 2.75481 12.1927 2.77667 13.8569C2.77667 13.9013 2.77667 13.9235 2.77667 13.9679C2.88597 20.0256 7.91381 24.9073 13.9035 24.7742Z" fill="#4F3A77"/>
</g>
</g>
</g>
</svg>
