<svg width="34" height="33" viewBox="0 0 34 33" fill="none" xmlns="http://www.w3.org/2000/svg">
<g id="Group">
<g id="Group_2">
<g id="Group_3">
<path id="Vector" d="M16.5084 28.9828C23.4258 28.9828 29.0334 23.3823 29.0334 16.4738C29.0334 9.5653 23.4258 3.96484 16.5084 3.96484C9.59103 3.96484 3.9834 9.5653 3.9834 16.4738C3.9834 23.3823 9.59103 28.9828 16.5084 28.9828Z" fill="#C6BAD3"/>
<path id="Vector_2" d="M24.7546 24.7229C29.3118 20.1715 29.3118 12.7923 24.7546 8.24097C20.1974 3.68961 12.8087 3.68961 8.25152 8.24097C3.69433 12.7923 3.69433 20.1715 8.25152 24.7229C12.8087 29.2743 20.1974 29.2743 24.7546 24.7229Z" fill="white"/>
</g>
<path id="Vector_3" d="M16.5076 27.4272C22.5649 27.4272 27.4752 22.5231 27.4752 16.4736C27.4752 10.4241 22.5649 5.52002 16.5076 5.52002C10.4504 5.52002 5.54004 10.4241 5.54004 16.4736C5.54004 22.5231 10.4504 27.4272 16.5076 27.4272Z" fill="#606060"/>
<g id="Group_4">
<g id="Clip path group">
<mask id="mask0_216_866" style="mask-type:luminance" maskUnits="userSpaceOnUse" x="5" y="5" width="23" height="23">
<g id="SVGID_2_">
<path id="Vector_4" d="M16.5086 27.4272C22.5659 27.4272 27.4762 22.5231 27.4762 16.4736C27.4762 10.4241 22.5659 5.52002 16.5086 5.52002C10.4514 5.52002 5.54102 10.4241 5.54102 16.4736C5.54102 22.5231 10.4514 27.4272 16.5086 27.4272Z" fill="white"/>
</g>
</mask>
<g mask="url(#mask0_216_866)">
<g id="Group_5">
<path id="Vector_5" d="M34.9123 5.52051H-1.87305V16.4522H34.9123V5.52051Z" fill="#FFD41F"/>
<path id="Vector_6" d="M34.9123 16.4741H-1.87305V21.9509H34.9123V16.4741Z" fill="#3358AA"/>
<path id="Vector_7" d="M34.9123 21.9292H-1.87305V27.406H34.9123V21.9292Z" fill="#F94351"/>
</g>
</g>
</g>
</g>
</g>
<g id="Group_6">
<g id="Group_7">
<g id="Group_8" opacity="0.25">
<g id="Group_9" opacity="0.5">
<path id="Vector_8" d="M15.4892 5.33496C9.9978 5.33496 5.54102 9.85889 5.54102 15.433C5.54102 21.0072 9.9978 25.5311 15.4892 25.5311C20.9806 25.5311 25.4374 21.0072 25.4374 15.433C25.4374 9.85889 20.9806 5.33496 15.4892 5.33496ZM15.4892 24.8444C10.3559 24.8444 6.1976 20.6234 6.1976 15.4128C6.1976 10.2022 10.3559 5.98124 15.4892 5.98124C20.6225 5.98124 24.7808 10.2022 24.7808 15.4128C24.7808 20.6234 20.6225 24.8444 15.4892 24.8444Z" fill="#4F3A77"/>
</g>
</g>
</g>
<g id="Group_10" opacity="0.25">
<path id="Vector_9" opacity="0.5" d="M15.7066 25.5109C19.0293 25.4503 21.9342 23.7134 23.705 21.1283C21.0786 22.4815 17.5172 22.1583 15.448 17.1699C13.7767 13.1509 10.6728 11.9997 8.06642 12.4844C6.61399 12.7469 5.55948 14.0597 5.57938 15.5744C5.57938 15.6148 5.57938 15.635 5.57938 15.6754C5.67886 21.1889 10.255 25.6321 15.7066 25.5109Z" fill="#4F3A77"/>
</g>
</g>
</g>
</svg>
