<svg width="370" height="950" viewBox="0 0 360 950" fill="none" xmlns="http://www.w3.org/2000/svg">
<g clip-path="url(#clip0_301_1446)">
<ellipse cx="81.5" cy="-34" rx="285.5" ry="246" fill="#FF3C53"/>
<g clip-path="url(#clip1_301_1446)">
<path d="M225.7 109.6C228 109.5 230.1 108.5 231.5 107C231.5 107 232.5 106 233.8 104.7C234.5 104 235.5 103.4 236.6 103.3C236.8 103.3 237.3 103.3 237.4 103.3C237.8 103.3 238.2 103.3 238.6 103.4C239.8 103.5 240.9 103.9 242 104.4L252 108.5C252 108.5 254.4 109.6 256.4 109.6H257.9C258.4 109.6 258.7 109.2 258.7 108.7V105C258.7 102.5 257.2 100.1 254.7 98.9998L252.5 98.0998C250.7 97.3998 248.7 96.0998 247.7 95.0998C247.7 95.0998 245.7 92.6998 248 90.3998L256.8 81.4998C258 80.2998 258.6 78.6998 258.6 77.0998C258.6 77.0998 258.6 76.3998 258.4 75.7998C258.3 75.2998 257.9 74.8998 257.7 74.6998C257.1 74.0998 256.4 73.7998 255.4 73.7998H254C251.7 73.8998 249.6 74.8998 248.2 76.2998C248.1 76.3998 242.4 82.1998 240.8 83.6998L232.7 91.8998V79.1998C232.7 76.2998 230.4 73.9998 227.5 73.9998H225.2C224.6 73.9998 223.7 73.9998 223.3 74.1998C223 74.3998 223 74.6998 223 75.0998V108.8C223 109.2 223.3 109.6 223.8 109.6H225.7Z" fill="#FFC832"/>
<path d="M183.6 105.3C183.6 105.3 181.7 104.8 178 101.8C176.1 100.3 174.7 99.2 174.1 98.7C174.8 98.3 177 97.4 179.1 95C180.4 93.6 181 91.7 181 89.5C181 87.4 180.4 85.4 179.2 83.5C178 81.6 176.4 80 174.4 78.6C172.5 77.2 170.2 76.1 167.8 75.3C165.3 74.4 163 74 160.6 74C160.6 74 146.3 74 146.2 74C145.8 74 145.4 74.3 145.4 74.8V98.9V104.3V106.1V108.5C145.4 108.9 145.4 109.2 145.7 109.4C146.1 109.6 147.1 109.7 147.7 109.7C148.5 109.7 149.4 109.6 150.2 109.4C151.4 109 152.5 108.1 153.2 107.1C154.6 105.3 154.9 103.3 154.9 101.1V86.4C154.9 86.2 154.9 85.7 155 85.4C155.1 85.1 155.3 84.8 155.3 84.8C156.4 82.8 160.1 82 164.2 83C169.6 84.4 171.2 88.1 170.6 89.7C170 91.4 168.1 92.5 165.6 92.5C164.4 92.5 163.2 92.3 162 91.9C162 91.9 161.2 91.7 160.6 91.5C160.3 91.4 159.8 91.1 159.3 91.1C158.9 91.1 158.7 91.4 158.7 92.1V95.9C158.7 97.2 159.2 98.4 160 99.1L171.7 108.4C172.8 109.2 174.1 109.7 175.4 109.7H183.2C183.8 109.7 184 109.3 184 108.7V106.2C184.2 105.8 183.9 105.4 183.6 105.3Z" fill="#FFC832"/>
<path d="M136.7 100.4H126.4C124.9 100.4 123.6 99.9996 122.3 99.4996C121.2 98.9996 119.5 97.4996 119 96.9996C118.1 95.9996 117.3 94.7996 116.8 93.3996C116.3 91.9996 116 90.5996 116 89.1996C116 87.2996 116.5 85.8996 117.6 84.8996C117.7 84.7996 118.2 84.3996 118.7 84.0996C119.2 83.7996 119.8 83.5996 120.2 83.4996C120.8 83.3996 121.5 83.2996 122.2 83.2996C122.9 83.2996 123.6 83.3996 124.2 83.4996C125.4 83.6996 126.5 84.1996 127.6 84.8996C129.2 85.8996 130.9 87.4996 132.1 88.9996H121.4C120.8 88.9996 120.4 89.2996 120.4 89.7996C120.4 90.8996 120.6 91.5996 121 92.4996C121.4 93.3996 123.5 96.5996 127.7 96.5996H137.7C139.4 96.5996 140.7 96.0996 141.3 95.1996C142 94.2996 142.2 93.4996 142.2 92.1996C142.2 90.1996 141.7 88.1996 140.6 85.9996C139.5 83.7996 138.1 81.8996 136.2 80.0996C134.4 78.2996 132.2 76.8996 129.8 75.7996C127.4 74.6996 124.8 74.0996 122.1 74.0996H107.4C107 74.0996 106.6 74.3996 106.6 74.8996V89.4996C106.6 92.1996 107.1 94.7996 108.2 97.2996C109.3 99.6996 110.7 101.9 112.5 103.7C114.3 105.5 116.4 107 118.9 108.1C121.3 109.2 123.9 109.7 126.7 109.7H141.5C141.9 109.7 142.3 109.3 142.3 108.9V105.9C142.3 104.2 141.8 102.8 140.9 101.8C139.8 100.9 138.4 100.4 136.7 100.4Z" fill="#FFC832"/>
<path d="M103.4 79.2C103.4 76.3 101 74 98.1 74H92.6C92.3 74 92.1 74.1 91.9 74.3L80.8 84.7C77 88.3 71.9 90.3 66.2 90.3C60.3 90.3 55 88.1 51.2 84.3C51.2 84.3 43 76.6 43 76.5C41.3 75.1 39.2 74.1 36.7 74H30.1C29.5 74 29 74.5 29 75.1V104.4C29 107.3 31.3 109.6 34.2 109.6H36.2H37.6C38.2 109.6 38.6 109.1 38.6 108.5V98.1C38.6 95.4 40.8 93.1 43.5 93.1C48.5 93.1 52.1 97.4 55.3 100.2C59.3 103.7 62.3 107.1 66.1 107.1C69.9 107.1 72.9 103.7 76.9 100.2C80.1 97.3 83.7 93.1 88.7 93.1C91.4 93.1 93.6 95.3 93.6 98V104.3C93.6 107.2 95.9 109.5 98.8 109.5H101.1C101.7 109.5 102.2 109.5 102.2 109.5C102.8 109.5 103.3 109 103.3 108.4C103.4 108.5 103.4 79.5 103.4 79.2Z" fill="#FFC832"/>
<path d="M219.001 94.6996H213.601C211.601 94.6996 210.301 95.5996 209.701 97.2996C209.301 98.3996 208.701 99.2996 207.901 99.9996C207.001 100.7 206.001 101 204.601 101C203.401 101 202.101 100.6 200.801 99.8996C199.501 99.1996 198.301 98.2996 197.301 97.0996C196.301 95.9996 195.401 94.6996 194.801 93.2996C194.201 91.8996 193.801 90.4996 193.801 89.0996C193.801 87.2996 194.301 85.8996 195.401 84.7996C196.501 83.6996 197.801 83.1996 199.401 83.1996C201.201 83.1996 203.101 83.8996 204.901 85.1996C205.601 85.7996 206.401 85.9996 207.301 85.9996C208.101 85.9996 209.001 85.4996 209.901 84.5996L213.601 80.9996C213.801 80.7996 213.901 80.5996 213.801 80.3996C213.701 80.1996 213.601 79.9996 213.401 79.7996C211.401 77.9996 209.201 76.5996 206.901 75.5996C204.501 74.5996 202.101 74.0996 199.501 74.0996H185.101C184.501 74.0996 184.301 74.3996 184.301 75.0996V89.4996C184.301 92.2996 184.901 94.8996 186.001 97.3996C187.101 99.8996 188.601 102.1 190.501 104C192.401 105.9 194.601 107.4 197.101 108.6C199.601 109.7 202.101 110.3 204.701 110.3C206.801 110.3 208.801 109.9 210.601 109.2C212.401 108.5 214.001 107.5 215.301 106.2C216.601 104.9 217.701 103.4 218.501 101.6C219.301 99.7996 219.701 97.8996 219.901 95.7996C219.901 94.9996 219.601 94.6996 219.001 94.6996Z" fill="#FFC832"/>
</g>
<path d="M85.6863 396.381L38.3969 399.408C27.6852 400.095 20.807 408.649 25.3354 415.65L80.6102 501.002C87.599 511.787 110.122 506.579 109.024 494.428L101.039 406.048C100.505 400.142 93.7225 395.865 85.6863 396.381Z" fill="#FF3C53"/>
<path d="M108.96 829.345L111.767 596.941C111.833 591.704 110.466 586.505 107.746 581.657L20.9564 426.701C12.6974 411.966 17.3783 395.074 32.7985 384.014L76.7552 352.472C86.7866 345.275 92.4954 335.42 92.6181 325.068L94.6648 154.957C94.9255 133.409 71.4088 115.654 42.122 115.299L36.5143 115.236C7.23746 114.88 -3.23781 132.769 -3.49847 154.317L-7.92173 519.708L43.0456 618.93C49.8579 632.188 46.1831 648.428 34.3168 657.456L-9.99722 691.187L-11.6417 827.128C-11.8861 847.731 -3.81263 864.331 24.1019 865.962L52.1378 867.603C82.6659 869.384 108.685 851.858 108.96 829.345Z" fill="#FF3C53"/>
<path d="M-25.6426 663.082C-23.9492 664.044 -15.2529 661.832 -13.4602 661.56C-8.82524 660.85 -4.18942 660.15 0.445502 659.44C6.0121 658.596 11.5778 657.741 17.1344 656.898C24.5925 655.762 31.5904 653.423 34.442 645.755C37.0614 638.741 35.3766 630.429 32.2042 623.878L-3.99961 549.123C-6.00712 559.576 -8.0237 570.039 -10.0312 580.493C-13.6739 599.407 -17.3058 618.331 -20.9485 637.245C-22.2614 644.051 -23.5644 650.856 -24.8773 657.662C-25.0425 658.5 -26.312 662.119 -25.8733 662.862C-25.8145 662.957 -25.7385 663.021 -25.6426 663.082Z" fill="#FF3C53"/>
</g>
<defs>
<clipPath id="clip0_301_1446">
<rect width="1709" height="949" fill="white"/>
</clipPath>
<clipPath id="clip1_301_1446">
<rect width="229.6" height="36.1" fill="white" transform="translate(29 74)"/>
</clipPath>
</defs>
</svg>
