<svg width="1920" height="1080" viewBox="0 0 1920 1080" fill="none" xmlns="http://www.w3.org/2000/svg">
<g clip-path="url(#clip0_288_4378)">
<rect width="1920" height="1080" fill="url(#paint0_linear_288_4378)"/>
<path opacity="0.9" d="M1098.49 1000.79C1128.34 1052.23 1142.33 1141.16 1130.2 1198.7L1111.55 1289.38C1099.43 1346.92 1140.46 1394 1202.95 1394H1988.22C2050.71 1394 2102 1352.15 2102 1299.84C2102 1248.4 2051.64 1197.83 1990.08 1189.11L1313.93 1085.36C1252.38 1075.77 1177.77 1026.07 1148.86 974.629L1038.81 780.201C1009.9 728.761 1012.69 645.933 1046.27 597.108L1286.89 243.127C1320.46 193.43 1390.41 180.352 1442.63 212.612L2006.87 563.977C2059.1 596.236 2101.07 575.311 2101.07 516.895V-207.631C2101.07 -266.047 2091.74 -314 2079.62 -314C2067.49 -314 2032.99 -272.15 2002.21 -221.581L1743.87 201.277C1713.1 251.846 1645.01 267.54 1591.85 236.152L1447.3 148.965C1395.07 117.577 1344.71 44.34 1335.38 -13.2037L1304.61 -209.375C1295.28 -266.919 1236.52 -314 1174.04 -314H-68.2197C-130.706 -314 -182 -266.047 -182 -207.631V494.227C-182 552.642 -130.706 604.955 -69.1523 611.058L814.977 693.014C877.463 699.117 952.073 745.326 981.917 796.767L1098.49 1000.79Z" fill="#FF574D"/>
<g clip-path="url(#clip1_288_4378)">
<path d="M143.3 142.5C141.1 145.6 138.3 146.3 135.1 146.1C133.7 146 133.2 145.6 133.2 144.2C133.2 140.4 133.2 136.6 133.2 132.8C133.2 131.4 133.8 130.9 135.2 130.8C137.3 130.7 139.3 130.9 141.1 132.1C143.2 119.3 135.4 110 124.2 110.2C115.2 110.4 108.4 117.5 108.1 126.5C108.1 128.1 108.1 129.7 108.1 131.2C108.1 131.8 108.1 132.2 108.9 131.7C110.6 130.7 112.5 130.6 114.5 130.7C115.6 130.7 116.2 131.3 116.2 132.4C116.2 136.4 116.2 140.3 116.2 144.3C116.2 145.3 115.6 145.9 114.6 145.9C111 146.3 108 145.5 106 142.2C105.8 141.9 105.7 141.8 105.2 141.9C103.7 142.2 103 141.7 103 140.1C103 138.9 103 137.8 103 136.6C103 135.8 103.3 135.1 104.2 135C105.1 134.9 105 134.4 105 133.8C105 130.9 104.9 128.1 105.1 125.2C105.7 115.6 113.9 107.5 123.4 107C133.5 106.5 142.4 113.4 144.1 123C144.7 126.4 144.4 129.9 144.5 133.3C144.5 134.1 144.3 134.9 145.5 135C146.2 135.1 146.5 135.8 146.5 136.6C146.5 140.5 146.5 144.4 146.5 148.3C146.5 149.2 146.1 149.8 145.2 150.1C141.3 151.4 137.5 153 133.5 153.9C131.3 154.4 129.9 155 128.5 156.7C126.5 159.1 122.5 158.6 120.5 156.1C118.5 153.6 119 149.9 121.6 148C124.2 146.1 127.8 146.8 129.6 149.5C129.9 150 129.9 150.8 130.5 150.9C131.3 151 132.2 151.1 133 150.8C136.3 149.7 139.5 148.6 142.8 147.6C143.3 147.4 143.5 147.1 143.5 146.6C143.3 145.4 143.3 144.1 143.3 142.5ZM136.4 138.5C136.4 139.7 136.4 141 136.4 142.2C136.4 142.8 136.6 143 137.2 142.9C139.4 142.8 141.3 140.8 141.4 138.5C141.5 136.2 139.7 134.2 137.5 133.9C136.7 133.8 136.4 134.1 136.5 134.9C136.4 136.1 136.4 137.3 136.4 138.5ZM113.1 138.5C113.1 137.3 113 136.1 113.1 134.9C113.2 134.1 112.8 133.9 112.1 134C109.9 134.3 108.1 136.3 108.1 138.6C108.2 140.9 110 142.8 112.2 143C112.8 143 113 142.9 113 142.3C113.1 141 113.1 139.7 113.1 138.5ZM124.7 155C126.1 155 127.2 154 127.2 152.6C127.2 151.2 126.1 150.1 124.8 150.1C123.5 150.1 122.3 151.2 122.3 152.5C122.3 153.9 123.3 154.9 124.7 155Z" fill="#1E6BB0"/>
<path d="M241.1 132.9C239.9 130.4 236.8 129.1 234.4 130.1C233.3 130.6 232.7 131.5 232.6 132.6C232.3 136.2 235.1 139.4 238.8 139.4C240.4 139.4 242 139.4 243.7 139.4C246.2 139.5 247.8 142 246.8 144.2C246.7 144.5 246.4 144.6 246.1 144.6C242.8 144.5 239.4 145 236.2 144.3C230.8 143.2 227.2 138.6 227 133C226.9 130.5 227 128 227 125.5C227 124.8 227.1 124.3 228 124.3C231.2 124.4 234.3 124 237.5 124.5C241.8 125.2 244.9 127.6 246.8 131.6C247 132 247.1 132.5 247.2 132.9C247.8 136.3 246.9 137.5 243.7 137.4C242.2 137.3 240.6 137.4 239.1 137.4C236.9 137.3 235.1 135.8 234.8 133.8C234.7 133 234.9 132.7 235.7 132.7C237.5 133 239.3 132.9 241.1 132.9Z" fill="white"/>
<path d="M254.4 136.8C256.2 134.7 258.1 132.6 259.9 130.6C261.2 129.1 262.6 127.6 263.9 126C265.1 124.6 266.6 124.6 268.2 124.6C268.6 124.6 268.9 124.8 268.9 125.2C268.9 126.7 269.1 128.3 267.9 129.5C266.8 130.6 265.8 131.8 264.7 133C263.6 134.3 263.6 135.4 264.8 136.6C265.8 137.6 266.8 138.7 267.9 139.7C269.3 141 268.9 142.7 268.9 144.3C268.9 144.6 268.6 144.8 268.3 144.8C266.4 144.9 264.5 145 263.2 143.2C262.5 142.3 261.7 141.6 260.9 140.8C259.9 139.8 258.8 139.8 257.9 140.9C256.9 141.9 256 143 255.1 144.1C253.8 145.5 252.2 144.9 250.8 144.6C249.6 144.3 248.9 143.3 248.9 142C248.9 136.6 248.9 131.1 248.9 125.7C248.9 124.9 249.2 124.6 249.9 124.7C250.5 124.7 251.2 124.7 251.8 124.8C253.6 125.1 254.4 126 254.4 127.8C254.4 130.6 254.4 133.4 254.4 136.2C254.2 136.3 254.1 136.5 254.4 136.8Z" fill="white"/>
<path d="M193.7 135.7C193.7 138.3 193.7 140.9 193.7 143.4C193.7 144.4 193.4 144.8 192.4 144.8C189.8 144.7 187.2 144.8 184.5 144.7C178.7 144.5 173.6 139.3 173.5 133.5C173.4 130.9 173.5 128.3 173.5 125.6C173.5 124.8 173.7 124.4 174.6 124.5C175.3 124.6 175.9 124.5 176.6 124.6C178.2 124.8 179 125.8 179.1 127.4C179.2 129.1 179.1 130.7 179.1 132.4C179.2 135.1 180.3 137.3 182.6 138.8C183.9 139.6 185.3 139.8 186.6 139.1C187.9 138.4 188.1 137.1 188.1 135.8C188.1 132.5 188.1 129.2 188.1 125.9C188.1 124.9 188.4 124.4 189.5 124.5C190 124.6 190.5 124.5 191 124.6C192.8 124.9 193.7 125.8 193.8 127.7C193.7 130.4 193.7 133.1 193.7 135.7Z" fill="white"/>
<path d="M214.5 124.6C217 124.6 219.6 124.6 222.1 124.6C225 124.6 226.4 126.6 225.7 129.4C225.5 130 225.1 129.9 224.7 129.9C223.6 129.9 222.5 129.9 221.3 129.9C219.4 130 218.4 131 218.4 132.9C218.4 136.4 218.4 140 218.4 143.5C218.4 144.5 218.1 144.9 217.1 144.8C216.7 144.8 216.4 144.8 216 144.8C213.8 144.7 212.9 143.8 212.8 141.7C212.8 139.1 212.8 136.5 212.8 133.8C212.8 130.8 211.9 129.9 209 129.9C206.3 129.9 204.7 127.7 205.5 125.2C205.7 124.5 206.3 124.6 206.7 124.6C209.3 124.6 211.9 124.6 214.5 124.6Z" fill="#EAEAEA"/>
<path d="M159.3 137.4C159.3 136.1 159.3 134.8 159.3 133.5C159.3 130.8 158.4 129.9 155.7 129.8C155.5 129.8 155.3 129.8 155.1 129.8C152.7 129.7 151.1 127.2 152 124.9C152.2 124.4 152.6 124.5 152.9 124.5C158.3 124.5 163.6 124.4 169 124.5C171.4 124.5 172.9 126.9 172.1 129.2C171.9 129.7 171.5 129.7 171.1 129.7C170.1 129.7 169.1 129.7 168.1 129.7C165.8 129.7 164.8 130.7 164.8 133.1C164.8 136.5 164.8 139.9 164.8 143.3C164.8 144.4 164.5 144.7 163.4 144.6C163 144.5 162.6 144.6 162.2 144.6C160.3 144.5 159.3 143.5 159.3 141.6C159.3 141.5 159.3 141.4 159.3 141.4C159.3 140.1 159.3 138.8 159.3 137.4Z" fill="#EAEAEA"/>
<path d="M124.7 114.9C118.4 115 113.4 119.8 113.1 126.1C113 127.4 112.4 128.2 111.5 128.1C110.4 128 110.1 127.2 110.1 126.1C110.1 119.1 115.9 112.7 122.9 112C130.6 111.2 137.5 116 139 123.4C139.2 124.3 139.3 125.2 139.4 126.1C139.5 127.3 139 128 138 128.1C137 128.2 136.4 127.5 136.3 126.2C136 120.5 132.2 116.1 126.6 115.1C126 115 125.4 115 124.7 114.9Z" fill="#EEC443"/>
<path d="M200.6 131.9C200.6 133.2 200.6 134.5 200.6 135.8C200.6 137.7 201.5 139 203.3 139.6C204.1 139.9 204.2 140.2 204.2 140.9C204.2 141.9 204.1 142.8 204.2 143.8C204.3 144.8 203.9 145.1 202.9 145C198.9 144.6 195.1 140.7 195 136.6C194.9 133 195 129.4 195 125.8C195 124.9 195.3 124.6 196.2 124.7C196.7 124.7 197.1 124.7 197.6 124.7C199.6 124.8 200.6 125.9 200.7 127.9C200.7 129.1 200.6 130.5 200.6 131.9Z" fill="white"/>
<path d="M197.9 122.7C195.1 122.7 195.1 122.7 195.1 119.8C195.1 117.3 195.1 117.3 197.6 117.5C200 117.7 201.5 120 200.6 122.3C200.5 122.7 200.2 122.8 199.8 122.8C199.2 122.7 198.5 122.7 197.9 122.7Z" fill="white"/>
</g>
<g clip-path="url(#clip2_288_4378)">
<path d="M1742.36 780.253C1745.71 780.16 1748.67 778.667 1750.78 776.568C1750.82 776.544 1752.28 775.074 1754.13 773.231C1755.21 772.182 1756.61 771.435 1758.21 771.249C1758.49 771.202 1759.24 771.179 1759.33 771.179C1759.9 771.179 1760.46 771.249 1761.02 771.295C1762.76 771.505 1764.4 771.995 1765.95 772.695L1780.34 778.644C1780.34 778.644 1783.81 780.253 1786.76 780.253H1788.87C1789.53 780.253 1790.02 779.67 1790.02 779.017V773.745C1790.02 770.105 1787.89 766.629 1784.28 765.136L1781.16 763.853C1778.54 762.873 1775.68 760.984 1774.2 759.584C1774.2 759.584 1771.31 756.178 1774.67 752.842L1787.47 740.081C1789.16 738.332 1790 736.069 1790.02 733.829C1790.02 733.829 1790.02 732.849 1789.77 731.939C1789.55 731.263 1789.11 730.656 1788.78 730.306C1787.96 729.49 1786.84 729.07 1785.43 729.047H1783.41C1780.06 729.117 1777.13 730.563 1775.02 732.686C1774.93 732.756 1766.58 741.108 1764.38 743.301L1752.65 755.035V736.535C1752.65 732.383 1749.28 729 1745.08 729H1741.82C1740.95 729 1739.71 729.023 1739.13 729.327C1738.63 729.583 1738.63 730.12 1738.63 730.586V779.134C1738.63 779.74 1739.13 780.253 1739.76 780.253H1742.36Z" fill="#FF624A"/>
<path d="M1681.57 773.978C1681.57 773.978 1678.87 773.208 1673.53 769.009C1670.74 766.839 1668.7 765.23 1667.83 764.53C1668.84 763.9 1672.07 762.617 1675.03 759.234C1676.86 757.158 1677.84 754.545 1677.84 751.256C1677.84 748.176 1676.97 745.284 1675.17 742.577C1673.39 739.871 1671.06 737.515 1668.23 735.509C1665.41 733.479 1662.23 731.893 1658.69 730.726C1655.12 729.583 1651.7 729 1648.28 729C1648.28 729 1627.53 729 1627.48 729C1626.87 729 1626.38 729.513 1626.38 730.12V764.81V772.508V775.144V778.574C1626.38 779.087 1626.38 779.577 1626.87 779.857C1627.5 780.207 1628.96 780.253 1629.78 780.253C1630.97 780.253 1632.24 780.137 1633.39 779.764C1635.15 779.157 1636.67 777.967 1637.8 776.474C1639.77 773.885 1640.26 770.969 1640.26 767.819V746.847C1640.26 746.567 1640.28 745.89 1640.42 745.447C1640.56 744.98 1640.82 744.537 1640.82 744.537C1642.39 741.644 1647.81 740.501 1653.65 741.971C1661.41 743.93 1663.7 749.249 1662.86 751.559C1661.99 754.055 1659.18 755.595 1655.69 755.595C1654 755.595 1652.29 755.315 1650.5 754.732C1650.46 754.708 1649.36 754.428 1648.49 754.102C1648.07 753.985 1647.27 753.589 1646.68 753.589C1646.1 753.589 1645.79 754.055 1645.79 754.988V760.471C1645.79 762.36 1646.57 764.017 1647.69 765.043C1647.74 765.09 1664.66 778.364 1664.66 778.364C1666.33 779.577 1668.09 780.23 1670.01 780.23L1681.22 780.253C1682.01 780.253 1682.39 779.717 1682.39 778.784V775.238C1682.37 774.701 1681.97 774.118 1681.57 773.978Z" fill="#FF624A"/>
<path d="M1613.79 766.956H1598.86C1596.72 766.956 1594.8 766.396 1592.92 765.603C1591.33 764.926 1588.87 762.78 1588.12 761.987C1586.76 760.494 1585.7 758.744 1584.93 756.785C1584.16 754.802 1583.78 752.795 1583.78 750.719C1583.78 748.036 1584.53 745.983 1586.08 744.49C1586.27 744.327 1586.92 743.767 1587.7 743.324C1588.47 742.881 1589.29 742.647 1589.83 742.531C1590.72 742.321 1591.7 742.204 1592.74 742.204C1593.77 742.204 1594.75 742.321 1595.64 742.531C1597.33 742.857 1598.97 743.534 1600.59 744.56C1602.91 746.03 1605.4 748.27 1607.04 750.393H1591.49C1590.56 750.393 1590.09 750.812 1590.09 751.606C1590.09 753.215 1590.35 754.242 1590.98 755.548C1591.61 756.855 1594.61 761.404 1600.71 761.404H1615.17C1617.7 761.404 1619.46 760.727 1620.42 759.397C1621.39 758.044 1621.67 756.925 1621.67 755.105C1621.67 752.166 1620.89 749.296 1619.32 746.17C1617.78 742.997 1615.67 740.198 1612.99 737.632C1610.34 735.089 1607.25 733.013 1603.71 731.426C1600.17 729.817 1596.49 729 1592.62 729H1571.35C1570.75 729 1570.23 729.513 1570.23 730.12V751.186C1570.23 755.128 1570.98 758.861 1572.53 762.384C1574.05 765.906 1576.14 768.986 1578.76 771.622C1581.39 774.258 1584.46 776.334 1587.95 777.897C1591.45 779.46 1595.22 780.277 1599.21 780.277H1620.54C1621.17 780.277 1621.67 779.764 1621.67 779.157V774.911C1621.67 772.438 1620.96 770.502 1619.58 769.079C1618.17 767.633 1616.25 766.956 1613.79 766.956Z" fill="#FF624A"/>
<path d="M1565.54 736.535C1565.54 732.359 1562.14 729 1557.97 729H1549.95C1549.55 729 1549.2 729.163 1548.92 729.42L1532.84 744.444C1527.33 749.599 1519.92 752.492 1511.78 752.492C1503.3 752.492 1495.61 749.319 1490.03 743.79C1490.03 743.79 1478.21 732.733 1478.12 732.639C1475.84 730.54 1472.7 729.07 1469.11 729H1459.52C1458.68 729 1458 729.677 1458 730.516V772.718C1458 776.871 1461.4 780.253 1465.57 780.253H1468.5H1470.5C1471.34 780.253 1472.02 779.577 1472.02 778.714V763.713C1472.02 759.771 1475.26 756.528 1479.12 756.528C1486.34 756.528 1491.53 762.687 1496.21 766.793C1501.94 771.832 1506.37 776.684 1511.81 776.684C1517.24 776.684 1521.65 771.832 1527.37 766.793C1532.06 762.687 1537.22 756.528 1544.46 756.528C1548.31 756.528 1551.52 759.747 1551.57 763.62V772.695C1551.57 776.847 1554.94 780.23 1559.14 780.23H1562.4C1563.27 780.23 1564.04 780.23 1564.04 780.23C1564.88 780.23 1565.56 779.554 1565.56 778.69C1565.54 778.714 1565.54 736.885 1565.54 736.535Z" fill="#FF624A"/>
<path d="M1732.82 758.791H1725.04C1722.17 758.791 1720.32 760.027 1719.43 762.5C1718.92 764.11 1718.03 765.37 1716.78 766.349C1715.54 767.306 1713.99 767.819 1712.05 767.819C1710.24 767.819 1708.41 767.306 1706.56 766.256C1704.69 765.23 1703.02 763.9 1701.52 762.267C1700 760.611 1698.8 758.791 1697.86 756.761C1696.92 754.732 1696.46 752.725 1696.46 750.696C1696.46 748.176 1697.23 746.123 1698.75 744.537C1700.3 742.974 1702.22 742.181 1704.54 742.181C1707.19 742.181 1709.82 743.161 1712.45 745.097C1713.5 745.89 1714.65 746.287 1715.84 746.287C1717.04 746.287 1718.31 745.61 1719.64 744.28L1724.94 739.078C1725.27 738.751 1725.39 738.425 1725.29 738.168C1725.2 737.888 1724.99 737.608 1724.66 737.258C1721.8 734.646 1718.66 732.639 1715.28 731.17C1711.84 729.747 1708.27 729 1704.54 729H1683.68C1682.88 729 1682.46 729.467 1682.46 730.4V751.092C1682.46 755.105 1683.28 758.884 1684.92 762.5C1686.54 766.116 1688.74 769.266 1691.51 771.995C1694.28 774.725 1697.44 776.917 1701 778.55C1704.57 780.183 1708.25 781 1712.05 781C1715.09 781 1717.93 780.487 1720.53 779.46C1723.14 778.434 1725.39 776.987 1727.31 775.168C1729.23 773.325 1730.76 771.155 1731.9 768.566C1733.03 766 1733.71 763.223 1733.92 760.214C1733.97 759.281 1733.62 758.791 1732.82 758.791Z" fill="#FF624A"/>
</g>
</g>
<defs>
<linearGradient id="paint0_linear_288_4378" x1="2261.82" y1="1237.13" x2="998.6" y2="-1009.87" gradientUnits="userSpaceOnUse">
<stop stop-color="#FFC832"/>
<stop offset="1" stop-color="#FFC832"/>
</linearGradient>
<clipPath id="clip0_288_4378">
<rect width="1920" height="1080" fill="white"/>
</clipPath>
<clipPath id="clip1_288_4378">
<rect width="165.8" height="51.2" fill="white" transform="translate(103 107)"/>
</clipPath>
<clipPath id="clip2_288_4378">
<rect width="332" height="52" fill="white" transform="translate(1458 729)"/>
</clipPath>
</defs>
</svg>
